#!OML:ASF F:\VICON\USERDATA\INSTALL\rory3\rory3.ASF
:FULLY-SPECIFIED
:DEGREES
113
root 0.569851 17.6457 -28.8976 -4.51699 -9.03065 -0.757895
lowerback 16.4119 0.564569 -2.1573
upperback -0.473617 0.653647 3.29864
thorax -9.83184 0.519183 4.66644
lowerneck -12.3428 -7.22662 -5.76612
upperneck 27.1936 -8.00975 -3.56602
head 10.9178 -4.69194 -1.36345
rclavicle 2.48481e-016 2.38542e-015
rhumerus -15.4395 -40.9598 -74.3976
rradius 92.1114
rwrist -86.2379
rhand -28.1534 -3.66313
rfingers 7.12502
rthumb -1.53402 -33.6374
lclavicle 2.48481e-016 2.38542e-015
lhumerus -43.0746 7.80347 80.669
lradius 43.1738
lwrist 2.92
lhand -6.48018 53.7323
lfingers 7.12502
lthumb 19.3707 82.7875
rfemur -4.88781 4.07728 27.7245
rtibia 31.3201
rfoot -19.9151 -14.0675
rtoes 18.7527
lfemur -5.74143 -8.39519 -11.8148
ltibia 33.1897
lfoot -12.3776 8.14379
ltoes -26.6163
114
root 0.542833 17.6347 -28.954 -4.53749 -7.67164 -0.954874
lowerback 17.3336 0.0659409 -2.34856
upperback -0.945025 -0.0261456 3.49257
thorax -10.8181 0.244966 5.19722
lowerneck -11.1586 -7.19151 -6.34303
upperneck 26.8942 -7.97385 -3.39768
head 10.6157 -4.7141 -1.14432
rclavicle 1.20513e-015 -1.90833e-014
rhumerus -15.8609 -40.5844 -74.0939
rradius 91.8591
rwrist -86.1083
rhand -27.9792 -3.30462
rfingers 7.12502
rthumb -1.36578 -33.28
lclavicle 1.20513e-015 -1.90833e-014
lhumerus -44.028 8.09934 80.4937
lradius 43.6783
lwrist 3.75277
lhand -7.78203 51.4978
lfingers 7.12502
lthumb 18.1186 80.674
rfemur -4.93284 3.55315 28.1082
rtibia 31.1679
rfoot -20.3148 -14.7956
rtoes 20.4931
lfemur -6.59465 -8.53387 -11.2423
ltibia 33.6534
lfoot -11.8473 6.89815
ltoes -26.7663
115
root 0.534426 17.6408 -28.9481 -4.56501 -7.49839 -1.07957
lowerback 16.9059 0.0959112 -2.22717
upperback -0.874051 0.0370469 3.45984
thorax -10.4991 0.257141 5.0605
lowerneck -10.1225 -7.40421 -6.46059
upperneck 26.237 -8.3846 -3.22987
head 10.1932 -4.88763 -1.04871
rclavicle -2.83765e-014 3.97569e-015
rhumerus -15.8704 -41.3474 -73.8824
rradius 91.5607
rwrist -85.5573
rhand -27.2825 -4.52774
rfingers 7.12502
rthumb -0.692908 -34.5064
lclavicle -2.83765e-014 3.97569e-015
lhumerus -44.0517 7.77285 80.4192
lradius 44.0834
lwrist 3.87674
lhand -7.84487 51.4105
lfingers 7.12502
lthumb 18.0581 80.5922
rfemur -4.72536 3.49048 28.2823
rtibia 30.8887
rfoot -19.7696 -15.0473
rtoes 18.6961
lfemur -6.8595 -8.41726 -11.0036
ltibia 34.0165
lfoot -11.7189 6.5042
ltoes -26.3918
116
root 0.524577 17.66 -28.938 -4.55343 -7.35271 -1.07495
lowerback 16.7873 0.0872286 -2.21314
upperback -0.854418 0.0268107 3.44103
thorax -10.4079 0.248177 5.03044
lowerneck -9.95899 -7.57101 -6.56686
upperneck 26.0178 -8.5948 -3.29825
head 10.089 -4.99918 -1.06647
rclavicle -1.43746e-014 1.82882e-014
rhumerus -15.8411 -41.7909 -73.6742
rradius 91.166
rwrist -84.617
rhand -26.3342 -5.65271
rfingers 7.12502
rthumb 0.222956 -35.6323
lclavicle -1.43746e-014 1.82882e-014
lhumerus -44 7.7496 80.3315
lradius 44.3695
lwrist 3.85253
lhand -7.8185 51.7587
lfingers 7.12502
lthumb 18.0835 80.938
rfemur -4.53534 3.45445 28.3029
rtibia 30.577
rfoot -19.798 -15.0754
rtoes 19.525
lfemur -7.22815 -8.56268 -10.9252
ltibia 34.4373
lfoot -11.7094 6.14936
ltoes -24.1249
117
root 0.516159 17.679 -28.9235 -4.58402 -7.12878 -0.862938
lowerback 16.7383 0.113728 -2.47922
upperback -0.865488 0.0093519 3.44101
thorax -10.3912 0.254604 5.18758
lowerneck -9.75842 -7.76867 -6.84741
upperneck 25.7743 -8.83792 -3.2864
head 9.98503 -5.1327 -1.0307
rclavicle 1.76546e-014 -4.53229e-014
rhumerus -15.8981 -42.1075 -73.2623
rradius 90.8941
rwrist -84.0377
rhand -25.9082 -6.23014
rfingers 7.12502
rthumb 0.63441 -36.2089
lclavicle 1.76546e-014 -4.53229e-014
lhumerus -43.9707 7.8897 80.3045
lradius 44.6279
lwrist 3.58327
lhand -7.36696 52.5656
lfingers 7.12502
lthumb 18.5179 81.7042
rfemur -4.28779 3.32329 28.0628
rtibia 30.2522
rfoot -19.8191 -15.0275
rtoes 20.1713
lfemur -7.45051 -8.71443 -11.1327
ltibia 34.7335
lfoot -11.6113 5.93408
ltoes -23.064
